<?xml version="1.0" encoding="UTF-8" standalone="no"?>
<!-- Created with Inkscape (http://www.inkscape.org/) -->

<svg
   width="210mm"
   height="297mm"
   viewBox="0 0 210 297"
   version="1.1"
   id="svg1587"
   inkscape:version="1.1.2 (b8e25be833, 2022-02-05)"
   sodipodi:docname="bar-chart-2.svg"
   xmlns:inkscape="http://www.inkscape.org/namespaces/inkscape"
   xmlns:sodipodi="http://sodipodi.sourceforge.net/DTD/sodipodi-0.dtd"
   xmlns="http://www.w3.org/2000/svg"
   xmlns:svg="http://www.w3.org/2000/svg">
  <sodipodi:namedview
     id="namedview1589"
     pagecolor="#ffffff"
     bordercolor="#666666"
     borderopacity="1.0"
     inkscape:pageshadow="2"
     inkscape:pageopacity="0.0"
     inkscape:pagecheckerboard="0"
     inkscape:document-units="mm"
     showgrid="false"
     inkscape:snap-nodes="false"
     inkscape:snap-bbox="true"
     inkscape:zoom="0.35355339"
     inkscape:cx="1079.0449"
     inkscape:cy="1021.0622"
     inkscape:window-width="1920"
     inkscape:window-height="1017"
     inkscape:window-x="-8"
     inkscape:window-y="-8"
     inkscape:window-maximized="1"
     inkscape:current-layer="layer1" />
  <defs
     id="defs1584" />
  <g
     inkscape:label="Warstwa 1"
     inkscape:groupmode="layer"
     id="layer1">
    <circle
       style="fill:#008000;stroke-width:1.85478"
       id="path1637"
       cx="104.13904"
       cy="106.39618"
       r="101.47096" />
    <circle
       style="fill:#ffffff;stroke-width:2.04315"
       id="path1661"
       cx="104.14137"
       cy="105.65633"
       r="90.015518" />
    <path
       style="fill:#008000;stroke-width:0.139527"
       d="m 105.42457,117.74866 c -3.03789,-1.22742 -8.816923,-4.82173 -15.313772,-9.52448 C 79.67366,100.66923 73.180107,93.637114 69.7825,86.209894 c -2.294745,-5.01634 -4.262358,-13.11601 -5.096498,-20.97973 -0.237225,-2.23601 -0.237924,-9.21203 -0.0012,-11.20057 0.468914,-3.93888 1.953046,-10.92332 3.299876,-15.529619 0.697937,-2.386993 1.749805,-5.428504 1.877377,-5.428504 0.409257,0 6.876895,3.646707 9.583476,5.403614 6.585025,4.274549 12.76284,10.210209 17.966426,17.262169 8.888863,12.0463 12.819853,21.00191 14.461743,32.9469 0.5972,4.34469 0.72257,10.18541 0.30032,13.995786 -0.0753,0.68026 -0.23688,2.62833 -0.35872,4.32904 -0.49611,6.92085 -1.33962,9.57464 -3.45766,10.87778 -0.84616,0.52065 -1.36291,0.4964 -2.93309,-0.1381 z"
       id="path29162-8" />
    <path
       style="fill:#ffffff;stroke-width:0.329907"
       d="m 110.32209,117.61356 c 0.076,0.31791 -0.66561,0.63758 -2.54135,1.0948 -1.45723,0.35528 -0.57048,5.25323 -1.10096,0.50628 -0.53047,-4.74702 -6.853463,-23.567266 -9.120073,-31.927106 -2.830253,-11.08485 -18.463358,-31.47433 -15.607984,-31.23185 20.238327,20.36224 20.390087,38.42726 28.370377,61.557946 z"
       id="path37148-8"
       sodipodi:nodetypes="cczccc" />
    <path
       style="fill:#008000;stroke-width:0.0784772"
       d="m 118.68808,114.3604 c 1.70867,-0.69043 4.95909,-2.71198 8.61326,-5.35706 5.8704,-4.24928 9.52271,-8.20453 11.43368,-12.381956 1.2907,-2.82146 2.39738,-7.37714 2.86654,-11.80011 0.13341,-1.25765 0.1339,-5.18133 6.7e-4,-6.29978 -0.26373,-2.21544 -1.09855,-6.14385 -1.85604,-8.73467 -0.39249,-1.34257 -0.98419,-3.05326 -1.05589,-3.05326 -0.23015,0 -3.86793,2.05109 -5.39025,3.03927 -3.70376,2.40424 -7.17847,5.74275 -10.10525,9.70915 -4.99956,6.77546 -7.21054,11.81256 -8.13404,18.53104 -0.33593,2.443676 -0.40645,5.728796 -0.16888,7.871956 0.0421,0.38254 0.13321,1.47832 0.20175,2.43488 0.27907,3.89263 0.75333,5.38527 1.94475,6.11822 0.47599,0.29288 0.7666,0.27915 1.64972,-0.0769 z"
       id="path29162-8-9" />
    <path
       style="fill:#ffffff;stroke-width:0.185558"
       d="m 115.93347,114.28442 c -0.0421,0.17877 0.37441,0.35865 1.42937,0.61571 0.81973,0.19986 0.32092,2.9547 0.61928,0.28476 0.29836,-2.66996 3.85474,-13.25548 5.12961,-17.957476 1.59187,-6.23469 10.38475,-17.70278 8.77872,-17.5664 -11.38306,11.45277 -11.46843,21.613496 -15.95696,34.623386 z"
       id="path37148-8-1"
       sodipodi:nodetypes="cczccc" />
    <text
       xml:space="preserve"
       style="font-style:normal;font-variant:normal;font-weight:normal;font-stretch:normal;font-size:27.2672px;line-height:1.25;font-family:Caveat;-inkscape-font-specification:Caveat;fill:#008000;fill-opacity:1;stroke:none;stroke-width:0.681682"
       x="19.18346"
       y="145.55109"
       id="text14110-0-7"><tspan
         sodipodi:role="line"
         id="tspan14108-9-3"
         style="font-style:normal;font-variant:normal;font-weight:normal;font-stretch:normal;font-family:Lato;-inkscape-font-specification:Lato;fill:#008000;stroke-width:0.681682"
         x="19.18346"
         y="145.55109">VEGETARIAN</tspan></text>
  </g>
</svg>
